<?xml version="1.0" encoding="UTF-8" standalone="no"?><!DOCTYPE svg PUBLIC "-//W3C//DTD SVG 1.1//EN" "http://www.w3.org/Graphics/SVG/1.1/DTD/svg11.dtd"><svg width="100%" height="100%" viewBox="0 0 100 100" version="1.1" xmlns="http://www.w3.org/2000/svg" xmlns:xlink="http://www.w3.org/1999/xlink" xml:space="preserve" xmlns:serif="http://www.serif.com/" style="fill-rule:evenodd;clip-rule:evenodd;stroke-linejoin:round;stroke-miterlimit:2;"><g id="svgg"><path id="path0" d="M64.431,0.273c-9.662,1.832 -16.198,11.818 -13.709,20.945c0.438,1.607 0.523,1.483 -1.655,2.401c-17.033,7.18 -25.32,30.007 -15.552,42.838c14.107,18.53 43.591,2.731 35.876,-19.223c-0.445,-1.266 -1.513,-4.892 -2.373,-8.057c-0.859,-3.165 -1.637,-5.988 -1.728,-6.273c-0.473,-1.477 5.93,0.497 9.561,2.948c17.384,11.735 10.042,41.708 -12.34,50.38c-16.636,6.445 -35.449,-0.782 -43.391,-16.669c-9.01,-18.025 -0.835,-39.998 17.648,-47.435c5.173,-2.081 4.188,-9.776 -1.381,-10.787c-3.892,-0.707 -13.853,5.447 -19.914,12.304c-16.02,18.12 -15.039,46.412 2.186,63.093c28.176,27.285 74.596,9.967 78.122,-29.145c1.734,-19.22 -11.971,-35.379 -31.241,-36.833l-2.111,-0.16l-0.478,-1.113c-2.116,-4.917 2.919,-9.732 7.765,-7.425c2.524,1.202 5.328,0.759 7.096,-1.121c1.354,-1.441 1.643,-2.458 1.514,-5.325c-0.166,-3.669 -7.615,-6.533 -13.895,-5.343m-10.556,33.86c0,0.075 0.993,3.818 2.206,8.319c2.946,10.929 3.039,11.869 1.498,15.099c-3.952,8.275 -16.357,5.582 -16.773,-3.641c-0.338,-7.49 4.319,-15.27 11.515,-19.237c1.218,-0.672 1.554,-0.789 1.554,-0.54" style="fill:#e2e8f0;"/></g></svg>