<?xml version="1.0" encoding="UTF-8" standalone="no"?>
<!DOCTYPE svg PUBLIC "-//W3C//DTD SVG 1.1//EN" "http://www.w3.org/Graphics/SVG/1.1/DTD/svg11.dtd">
<svg width="100%" height="100%" viewBox="0 0 24 24" version="1.1" xmlns="http://www.w3.org/2000/svg" xmlns:xlink="http://www.w3.org/1999/xlink" xml:space="preserve" xmlns:serif="http://www.serif.com/" style="fill-rule:evenodd;clip-rule:evenodd;stroke-linejoin:round;stroke-miterlimit:2;">
    <g transform="matrix(0.0502092,0,0,0.0502092,-0.895632,-0.920134)">
        <path d="M137.71,18.326L17.866,138.166L47.448,167.748C70.488,114.05 113.588,70.946 167.288,47.906L137.708,18.326L137.71,18.326ZM375.996,18.366L346.44,47.92C400.133,70.968 443.23,114.075 466.262,167.777L495.838,138.202L375.996,18.362L375.996,18.366ZM242.726,55.406C137.405,62.64 54.448,150.126 54.448,257.31C54.448,369.24 144.914,459.707 256.846,459.707C289.596,459.707 320.506,451.95 347.853,438.187L325.593,422.407C304.42,431.247 281.199,436.141 256.848,436.141C158.196,436.141 78.021,355.969 78.021,257.317C78.021,166.375 146.154,91.139 234.086,79.935L242.723,55.407L242.726,55.406ZM272.158,55.482L280.713,80.086C368.11,91.776 435.673,166.756 435.673,257.316C435.673,305.55 416.503,349.359 385.383,381.546L394.016,406.232C434.136,369.269 459.246,316.272 459.246,257.309C459.246,150.527 376.914,63.286 272.158,55.481L272.158,55.482ZM257.408,69.972L225.108,161.678L244.033,161.678L244.033,206.746C248.383,205.564 252.95,204.922 257.663,204.922C262.023,204.922 266.259,205.469 270.313,206.486L270.313,161.678L289.293,161.678L257.408,69.97L257.408,69.972ZM329.228,114.392L312.031,144.182C308.585,142.525 305.048,141.024 301.435,139.682L315.579,180.365L289.003,180.365L289.003,215.422C301.705,224.984 309.953,240.178 309.953,257.215C309.953,265.912 307.793,274.125 303.997,281.357L344.702,335.543L364.168,320.881L369.092,334.961L389.695,346.858C393.172,341.705 396.352,336.336 399.221,330.778L369.871,313.833C376.838,299.991 381.318,284.681 382.731,268.485L416.593,268.485C416.846,264.795 416.985,261.073 416.985,257.317C416.985,254.797 416.919,252.291 416.805,249.797L382.985,249.797C382.005,233.374 377.875,217.804 371.189,203.685L400.639,186.683C397.879,181.067 394.804,175.637 391.431,170.417L361.951,187.437C352.981,174.087 341.517,162.557 328.221,153.515L345.374,123.805C340.196,120.367 334.808,117.22 329.23,114.395L329.228,114.392ZM183.848,114.705C178.281,117.555 172.908,120.728 167.744,124.188L185.364,154.711C172.474,163.801 161.376,175.256 152.694,188.448L122.049,170.753C118.687,175.981 115.627,181.42 112.882,187.043L143.612,204.783C137.227,218.611 133.282,233.799 132.327,249.798L96.895,249.798C96.78,252.291 96.713,254.796 96.713,257.318C96.713,261.073 96.853,264.795 97.105,268.485L132.582,268.485C133.959,284.26 138.246,299.193 144.906,312.749L114.293,330.423C117.148,335.988 120.321,341.361 123.785,346.523L154.377,328.86C163.122,341.482 174.12,352.42 186.795,361.096L169.268,391.449C174.47,394.849 179.884,397.954 185.484,400.741L202.957,370.476C216.492,377.03 231.385,381.222 247.104,382.528L247.104,417.148C250.328,417.341 253.576,417.451 256.85,417.451C259.85,417.451 262.83,417.361 265.79,417.199L265.79,382.702C272.385,382.282 278.838,381.344 285.115,379.946L295.797,371.899L248.277,308.642C223.951,304.188 205.369,282.78 205.369,257.214C205.369,240.621 213.202,225.784 225.345,216.188L225.345,180.363L198.715,180.363L212.911,140.053C208.977,141.553 205.134,143.237 201.401,145.109L183.847,114.704L183.848,114.705ZM257.662,223.611C238.992,223.611 224.057,238.546 224.057,257.216C224.057,275.886 238.993,290.819 257.662,290.819C276.332,290.819 291.266,275.885 291.266,257.216C291.266,238.546 276.332,223.612 257.662,223.612L257.662,223.611ZM292.025,296.538C286.047,301.772 278.883,305.678 270.995,307.771L321.947,375.599L307.369,386.583L387.109,443.108L354.972,351.206L340.997,361.731L292.024,296.538L292.025,296.538ZM466.248,346.868C452.045,379.97 430.211,409.035 402.978,431.866L412.678,459.599L495.828,376.449L466.248,346.869L466.248,346.868ZM47.46,346.9L17.875,376.486L137.715,496.326L167.318,466.723C113.616,443.69 70.508,400.593 47.46,346.9ZM370.803,454.453C362.955,459.005 354.811,463.103 346.408,466.707L375.988,496.287L398.318,473.957L370.803,454.453Z" style="fill:rgb(226,232,240);fill-rule:nonzero;"/>
    </g>
</svg>
