<?xml version="1.0" encoding="UTF-8" standalone="no"?>
<!DOCTYPE svg PUBLIC "-//W3C//DTD SVG 1.1//EN" "http://www.w3.org/Graphics/SVG/1.1/DTD/svg11.dtd">
<svg width="100%" height="100%" viewBox="0 0 24 24" version="1.1" xmlns="http://www.w3.org/2000/svg" xmlns:xlink="http://www.w3.org/1999/xlink" xml:space="preserve" xmlns:serif="http://www.serif.com/" style="fill-rule:evenodd;clip-rule:evenodd;stroke-linejoin:round;stroke-miterlimit:2;">
    <g transform="matrix(0.0510682,0,0,0.0510682,-1.07294,-1.07447)">
        <path d="M255.9,21.04C244.1,21.04 233.7,25.12 227.3,31.05C221.7,36.03 218.7,42.46 218.7,49.16C218.7,54.71 220.9,60.17 224.6,64.64C208.2,69.61 194.5,78.28 185.6,89.17C207.7,81.5 231.3,77.31 255.9,77.31C280.5,77.31 304.2,81.5 326.2,89.17C317.3,78.28 303.6,69.61 287.2,64.64C291.1,60.17 293.1,54.71 293.1,49.16C293.1,42.46 290.1,36.03 284.6,31.05C278.2,25.12 267.7,21.04 255.9,21.04ZM255.9,41.38C261.2,41.38 266,42.65 269.5,44.9C271.2,46.06 272.9,47.33 272.9,49.17C272.9,50.93 271.2,52.2 269.5,53.36C266,55.69 261.2,56.97 255.9,56.97C250.6,56.97 245.8,55.69 242.3,53.36C240.7,52.2 239,50.93 239,49.17C239,47.33 240.7,46.06 242.3,44.9C245.8,42.65 250.6,41.38 255.9,41.38ZM256,89.48C145.2,89.48 55.28,179.5 55.28,290.3C55.28,401.1 145.2,491 256,491C366.8,491 456.7,401.1 456.7,290.3C456.7,179.5 366.8,89.48 256,89.48ZM256,122.1C348.9,122.1 424.2,197.4 424.2,290.3C424.2,383.1 348.9,458.5 256,458.5C163.1,458.5 87.74,383.1 87.74,290.3C87.74,197.4 163.1,122.1 256,122.1ZM247.8,128.4C238.2,128.9 228.8,130.3 219.5,132.5L221.8,140.3C230.2,138.3 238.9,137 247.8,136.5L247.8,128.4ZM264,128.4L264,136.5C273,137 281.7,138.3 290,140.3L292.2,132.5C283.1,130.3 273.6,128.9 264,128.4ZM204,136.9C195,140.1 186.4,143.9 178.2,148.5L182.3,155.6C190,151.3 197.9,147.7 206.2,144.8L204,136.9ZM307.7,136.9L305.7,144.8C314.1,147.7 321.9,151.3 329.5,155.6L333.7,148.5C325.5,143.9 316.8,140.1 307.7,136.9ZM164.4,157.2C156.9,162.6 149.8,168.6 143.3,175.1L149.1,180.9C155,174.8 161.6,169.2 168.6,164.3L164.4,157.2ZM347.3,157.2L343.3,164.3C350.2,169.2 356.8,174.8 362.8,180.9L368.5,175.1C362,168.6 354.8,162.6 347.3,157.2ZM255.9,168.7C218.9,168.7 188.5,197.3 185.6,233.6L201.5,238.3C202.2,208.7 226.2,184.9 255.9,184.9C286,184.9 310.3,209.3 310.3,239.2C310.3,254.2 304.1,267.9 294.3,277.7L294.4,277.8C296.1,280.5 297.4,283.4 298.5,286.4C299.4,289.4 300.2,292.1 300.8,295L300.8,295.4C334.6,278.7 358,243.9 358,203.7C358,199.9 357.8,196.4 357.4,192.8C354.2,189.5 351.1,186.4 347.6,183.3C349.1,189.8 349.9,196.7 349.9,203.7C349.9,232.4 336.9,258.4 316.4,275.5C322.7,264.9 326.5,252.5 326.5,239.2C326.5,200.3 294.8,168.7 255.9,168.7ZM164.1,183.3C160.8,186.4 157.6,189.5 154.4,192.8C154.1,196.4 153.9,199.9 153.9,203.7C153.9,211 154.6,217.9 156,224.6L165.1,227.3C163,219.8 162,211.9 162,203.7C162,196.7 162.7,189.8 164.1,183.3ZM132.5,187.3C126.7,194.4 121.6,201.9 117.1,209.9L124.2,213.9C128.3,206.5 133,199.6 138.2,193.1L132.5,187.3ZM379.3,187.3L373.6,193.1C378.9,199.6 383.6,206.5 387.5,213.9L394.6,209.9C390.2,201.9 385.1,194.4 379.3,187.3ZM110.1,224.4C107.6,230.1 105.5,235.8 103.7,242L103.8,241.7C107.2,236.7 111.7,232.4 116.7,229.2L117,228.6L110.1,224.4ZM401.9,224.4L394.7,228.6C397.9,235.9 400.4,243.7 402.3,251.7L410.2,249.6C408.1,240.8 405.3,232.3 401.9,224.4ZM140.7,235.9C127.3,236 115,244.9 111,258.4L225.8,292.6C220.9,309.3 230.4,326.8 247,331.8L361.7,366C378.3,371 395.8,361.6 400.8,345L286.2,310.6C291.1,294.1 281.5,276.5 264.9,271.5C264.9,271.5 192.5,250 150.1,237.2C147,236.3 143.8,235.8 140.7,235.9ZM98.61,265.6C97.71,272.5 97.21,279.6 97.21,286.9C97.21,288.2 97.31,289.8 97.31,291.1L105.4,291.1L105.4,286.9C105.4,280.4 105.8,274 106.6,267.7L98.61,265.6ZM413.2,265.6L405.3,267.7C406,274 406.6,280.4 406.6,286.9C406.6,288.2 406.6,289.8 406.4,291.1L414.6,291.1L414.6,286.9C414.6,279.6 414.1,272.5 413.2,265.6ZM255.9,290.3C262.2,290.3 267.4,295.3 267.4,301.6C267.4,308 262.2,313.2 255.9,313.2C249.6,313.2 244.4,308 244.4,301.6C244.4,295.3 249.6,290.3 255.9,290.3ZM98.51,307.4C99.51,315.6 101.4,323.8 103.6,331.7L111.5,329.6C109.4,322.4 107.7,315 106.7,307.4L98.51,307.4ZM405.2,307.4C404.1,315 402.5,322.4 400.4,329.6L408.2,331.7C410.4,323.8 412.3,315.6 413.4,307.4L405.2,307.4ZM213.9,318.3C194.9,331.6 182.5,353.6 182.5,378.4C182.5,388.8 184.8,398.8 188.7,408.1C197.5,413 206.6,416.9 216.3,419.8C205.5,409.1 198.8,394.6 198.8,378.4C198.8,359.4 208.1,342.4 222.5,332.1C218.7,328 215.8,323.4 213.9,318.3ZM116.8,345L108.9,347C112,354.6 115.7,361.7 119.9,368.6L126.8,364.4C123,358.2 119.8,351.6 116.8,345ZM311.6,365.5C312.5,369.6 313,374 313,378.4C313,394.6 306.3,409.1 295.6,419.8C305.2,416.9 314.4,413 323.1,408.1C327.1,398.8 329.3,388.8 329.3,378.4C329.3,375.7 329.1,373.2 328.9,370.7L311.6,365.5ZM136,377.9L128.9,382C133.6,388.2 138.6,394.1 144.2,399.3L149.9,393.8C144.8,388.8 140.2,383.5 136,377.9ZM379.9,380.2L379.7,380.3C377.6,380.6 375.7,380.9 373.5,381L373.4,381C369.8,385.5 366.1,389.8 361.9,393.8L367.7,399.3C373.2,394.1 378.2,388.2 382.9,382L379.9,380.2ZM162.1,404.2L156.2,410.1C162.2,414.9 168.4,419.8 175,423.7L178.8,415.9C173.1,413 167.4,409.1 162.1,404.2ZM349.8,404.2C344.4,409.1 338.7,413 333,415.9L336.9,423.7C343.4,419.8 349.7,414.9 355.6,410.1L349.8,404.2ZM193.4,423.7L189.3,430.5C195.9,434.5 203,436.3 210,439.3L212.2,431.4C205.7,429.5 199.5,426.6 193.4,423.7ZM318.6,423.7C312.4,426.6 306.1,429.5 299.5,431.4L301.8,439.3C309,436.3 315.8,434.5 322.5,430.5L318.6,423.7ZM227.9,435.4L225.9,443.2C233,444.2 240.4,445.1 247.8,445.1L247.8,437.4C241,437.4 234.3,436.3 227.9,435.4ZM283.8,435.4C277.5,436.3 270.8,437.4 264,437.4L264,445.1C271.5,445.1 278.8,444.2 286.1,443.2L283.8,435.4Z" style="fill:rgb(226,232,240);fill-rule:nonzero;"/>
    </g>
</svg>
