<?xml version="1.0" encoding="UTF-8" standalone="no"?>
<!DOCTYPE svg PUBLIC "-//W3C//DTD SVG 1.1//EN" "http://www.w3.org/Graphics/SVG/1.1/DTD/svg11.dtd">
<svg width="100%" height="100%" viewBox="0 0 24 24" version="1.1" xmlns="http://www.w3.org/2000/svg" xmlns:xlink="http://www.w3.org/1999/xlink" xml:space="preserve" xmlns:serif="http://www.serif.com/" style="fill-rule:evenodd;clip-rule:evenodd;stroke-linejoin:round;stroke-miterlimit:2;">
    <path d="M17.813,4.653L18.667,4.653C20.177,4.707 21.436,5.231 22.44,6.227C23.444,7.222 23.964,8.476 24,9.987L24,17.347C23.964,18.857 23.444,20.116 22.44,21.12C21.436,22.124 20.178,22.644 18.667,22.68L5.333,22.68C3.823,22.644 2.564,22.124 1.56,21.12C0.556,20.116 0.036,18.858 0,17.347L0,9.987C0.036,8.476 0.556,7.222 1.56,6.227C2.564,5.231 3.822,4.707 5.333,4.653L6.107,4.653L4.933,3.533C4.689,3.296 4.554,2.967 4.56,2.627C4.56,2.271 4.684,1.969 4.933,1.72L4.96,1.693C5.227,1.444 5.533,1.32 5.88,1.32C6.227,1.32 6.533,1.444 6.8,1.693L9.653,4.44C9.724,4.511 9.787,4.582 9.84,4.653L14.107,4.653C14.149,4.574 14.203,4.502 14.267,4.44L17.12,1.693C17.387,1.444 17.693,1.32 18.04,1.32C18.387,1.32 18.702,1.471 18.969,1.72C19.236,1.969 19.36,2.271 19.36,2.627C19.36,2.982 19.236,3.284 18.987,3.533L17.813,4.653ZM5.333,7.24C4.587,7.258 3.96,7.516 3.453,8.013C2.947,8.511 2.684,9.143 2.667,9.907L2.667,17.427C2.684,18.191 2.947,18.822 3.453,19.32C3.96,19.818 4.587,20.076 5.333,20.093L18.667,20.093C19.413,20.076 20.04,19.818 20.547,19.32C21.053,18.822 21.316,18.191 21.333,17.427L21.333,9.907C21.316,9.142 21.053,8.511 20.547,8.013C20.04,7.516 19.413,7.258 18.667,7.24L5.333,7.24ZM8,11.107C8.373,11.107 8.684,11.231 8.933,11.48C9.183,11.729 9.316,12.049 9.333,12.44L9.333,13.613C9.316,14.004 9.183,14.324 8.933,14.573C8.684,14.823 8.373,14.947 8,14.947C7.627,14.947 7.316,14.822 7.067,14.573C6.817,14.324 6.684,14.004 6.667,13.613L6.667,12.44C6.667,12.067 6.796,11.751 7.053,11.493C7.311,11.236 7.627,11.107 8,11.107ZM16,11.107C16.373,11.107 16.684,11.231 16.933,11.48C17.183,11.729 17.316,12.049 17.333,12.44L17.333,13.613C17.316,14.004 17.183,14.324 16.933,14.573C16.684,14.823 16.373,14.947 16,14.947C15.627,14.947 15.316,14.822 15.067,14.573C14.817,14.324 14.684,14.004 14.667,13.613L14.667,12.44C14.684,12.049 14.817,11.729 15.067,11.48C15.316,11.231 15.627,11.107 16,11.107Z" style="fill:rgb(226,232,240);fill-rule:nonzero;"/>
</svg>
