<?xml version="1.0" encoding="UTF-8" standalone="no"?>
<!DOCTYPE svg PUBLIC "-//W3C//DTD SVG 1.1//EN" "http://www.w3.org/Graphics/SVG/1.1/DTD/svg11.dtd">
<svg width="100%" height="100%" viewBox="0 0 24 24" version="1.1" xmlns="http://www.w3.org/2000/svg" xmlns:xlink="http://www.w3.org/1999/xlink" xml:space="preserve" xmlns:serif="http://www.serif.com/" style="fill-rule:evenodd;clip-rule:evenodd;stroke-linejoin:round;stroke-miterlimit:2;">
    <g transform="matrix(0.0857124,0,0,0.0964289,-5.14275,-7.28578)">
        <g id="svgg">
            <path id="path0" d="M98.889,120.556L98.889,134.444L60,134.444L60,168.889L94.685,168.889L93.977,171.712C89.35,190.146 76.846,204.505 63.056,207.219L60,207.82L60,241.367L66.369,240.571C75.716,239.404 83.674,236.044 91.74,229.862L98.889,224.383L98.889,293.333L133.333,293.333L133.333,259.444C133.333,226.393 133.64,223.562 136.808,227.406C141.354,232.922 155.002,239.354 164.742,240.571L171.111,241.367L171.111,207.935L164.857,206.117C153.593,202.843 140.728,186.876 137.321,171.944L136.624,168.889L171.111,168.889L171.111,134.444L133.333,134.444L133.333,106.667L98.889,106.667L98.889,120.556M241.111,112.778L241.111,118.889L184.444,118.889L184.444,153.333L331.111,153.333L331.111,118.889L274.444,118.889L274.444,106.667L241.111,106.667L241.111,112.778M239.712,171.05C238.983,181.698 235.606,189.807 228.847,197.139C222.226,204.322 222.222,204.314 222.222,182.778L222.222,163.333L184.444,163.333L184.444,241.111L200.878,241.111C226.927,241.111 236.879,237.522 251.77,222.757C266.172,208.477 274.375,189.274 274.425,169.722L274.444,162.222L240.318,162.222L239.712,171.05M289.507,170.805C287.088,201.169 274.622,225.412 253.021,241.759C237.884,253.215 226.86,256.641 202.5,257.46L184.444,258.066L184.444,292.222L199.364,292.222C234.444,292.222 254.234,285.3 280.901,263.701L284.581,260.721L315.551,291.633L327.779,279.444L340.006,267.254L323.138,250.36L306.269,233.465L311.365,222.566C319.75,204.633 323.083,190.938 323.619,172.222L323.889,162.778L307.042,162.472L290.195,162.165L289.507,170.805" style="fill:rgb(226,232,240);"/>
        </g>
    </g>
</svg>
