<?xml version="1.0" encoding="UTF-8" standalone="no"?>
<!DOCTYPE svg PUBLIC "-//W3C//DTD SVG 1.1//EN" "http://www.w3.org/Graphics/SVG/1.1/DTD/svg11.dtd">
<svg width="100%" height="100%" viewBox="0 0 24 24" version="1.1" xmlns="http://www.w3.org/2000/svg" xmlns:xlink="http://www.w3.org/1999/xlink" xml:space="preserve" xmlns:serif="http://www.serif.com/" style="fill-rule:evenodd;clip-rule:evenodd;stroke-linejoin:round;stroke-miterlimit:2;">
    <path d="M7.168,0C3.968,0 1.371,2.579 1.371,5.758L1.371,18.242C1.371,21.42 3.968,24 7.168,24C9.149,24 10.884,23.022 11.936,21.521L12.73,22.311C14.99,24.556 18.673,24.556 20.933,22.311C22.02,21.234 22.631,19.766 22.629,18.236C22.631,16.707 22.02,15.238 20.933,14.162L18.751,11.994L20.933,9.838C22.02,8.762 22.631,7.293 22.629,5.764C22.631,4.235 22.02,2.766 20.933,1.69C18.673,-0.556 14.991,-0.556 12.73,1.69L11.936,2.479C10.85,0.923 9.066,-0.005 7.168,-0Z" style="fill:rgb(226,232,240);fill-rule:nonzero;"/>
</svg>
