<?xml version="1.0" encoding="UTF-8" standalone="no"?>
<!DOCTYPE svg PUBLIC "-//W3C//DTD SVG 1.1//EN" "http://www.w3.org/Graphics/SVG/1.1/DTD/svg11.dtd">
<svg width="100%" height="100%" viewBox="0 0 24 24" version="1.1" xmlns="http://www.w3.org/2000/svg" xmlns:xlink="http://www.w3.org/1999/xlink" xml:space="preserve" xmlns:serif="http://www.serif.com/" style="fill-rule:evenodd;clip-rule:evenodd;stroke-linejoin:round;stroke-miterlimit:2;">
    <g transform="matrix(0.0532151,0,0,0.0532151,-1.62306,-1.62306)">
        <path d="M134.5,30.5L134.5,481.5L377.5,481.5L377.5,30.5L134.5,30.5ZM235.18,50.5L276.78,50.5C281.169,50.5 284.78,54.111 284.78,58.5C284.78,62.889 281.169,66.5 276.78,66.5L235.18,66.5C230.791,66.5 227.18,62.889 227.18,58.5C227.18,54.111 230.791,50.5 235.18,50.5ZM255.5,471.01C244.934,471.01 236.24,462.316 236.24,451.75C236.24,441.184 244.934,432.49 255.5,432.49C266.066,432.49 274.76,441.184 274.76,451.75C274.76,462.316 266.066,471.01 255.5,471.01ZM360.5,426.5L149.5,426.5L149.5,83.5L360.5,83.5L360.5,426.5Z" style="fill:rgb(226,232,240);fill-rule:nonzero;"/>
    </g>
</svg>
