<?xml version="1.0" encoding="UTF-8" standalone="no"?>
<!DOCTYPE svg PUBLIC "-//W3C//DTD SVG 1.1//EN" "http://www.w3.org/Graphics/SVG/1.1/DTD/svg11.dtd">
<svg width="100%" height="100%" viewBox="0 0 24 24" version="1.1" xmlns="http://www.w3.org/2000/svg" xmlns:xlink="http://www.w3.org/1999/xlink" xml:space="preserve" xmlns:serif="http://www.serif.com/" style="fill-rule:evenodd;clip-rule:evenodd;stroke-linejoin:round;stroke-miterlimit:2;">
    <g transform="matrix(0.0504034,0,0,0.0504034,-0.637099,-0.807967)">
        <path d="M261.094,16.03L242.406,16.062L242.469,49.344C226.519,49.984 210.615,52.489 194.874,56.874L184.654,23.594L166.78,29.062L177.125,62.656C164.629,67.292 152.258,73.096 140.095,80.094L120.969,49.594L105.155,59.5L124.218,89.97C113.538,97.12 103.058,105.19 92.778,114.188L66.907,90.124L54.157,103.812L79.032,126.936C76.567,129.342 74.095,131.766 71.658,134.28L65.378,140.78L71.658,147.28C126.125,203.513 188.166,232.377 250.564,232.375C312.964,232.373 374.994,203.505 429.471,147.281L435.751,140.781L429.471,134.281C427.091,131.826 424.689,129.446 422.281,127.095L447.281,103.815L434.564,90.125L408.532,114.345C399.382,106.321 390.07,99.03 380.596,92.47L399.908,61.688L384.096,51.75L364.908,82.344C352.085,74.679 339.02,68.337 325.814,63.314L336.127,29.781L318.252,24.313L308.096,57.376C292.583,52.909 276.886,50.294 261.158,49.47L261.096,16.03L261.094,16.03ZM250.53,70.25C289.677,70.25 321.22,101.76 321.22,140.906C321.22,180.052 289.677,211.594 250.53,211.594C211.385,211.594 179.875,180.052 179.875,140.906C179.875,101.761 211.385,70.25 250.531,70.25L250.53,70.25ZM315.22,79.313C347.597,90.877 379.38,111.268 409.5,140.781C379.485,170.183 347.817,190.538 315.562,202.126C330.642,186.116 339.906,164.564 339.906,140.906C339.906,117.068 330.506,95.361 315.219,79.313L315.22,79.313ZM185.812,79.343C170.542,95.388 161.156,117.083 161.156,140.906C161.156,164.546 170.406,186.086 185.469,202.094C153.251,190.498 121.632,170.15 91.655,140.781C121.747,111.307 153.478,90.918 185.811,79.345L185.812,79.343ZM250.562,90.156C222.572,90.156 199.875,112.852 199.875,140.844C199.875,168.834 222.571,191.5 250.563,191.5C278.553,191.5 301.25,168.833 301.25,140.844C301.25,112.852 278.554,90.156 250.562,90.156ZM329.437,236.562C303.553,245.679 277.067,250.282 250.562,250.282C233.709,250.282 216.872,248.385 200.187,244.687L259.781,295.812L166.095,298.312L419.53,492.188L333.72,347.813L405.25,347.095L329.437,236.565L329.437,236.562Z" style="fill:rgb(226,232,240);fill-rule:nonzero;"/>
    </g>
</svg>
