<?xml version="1.0" encoding="UTF-8" standalone="no"?>
<!DOCTYPE svg PUBLIC "-//W3C//DTD SVG 1.1//EN" "http://www.w3.org/Graphics/SVG/1.1/DTD/svg11.dtd">
<svg width="100%" height="100%" viewBox="0 0 24 24" version="1.1" xmlns="http://www.w3.org/2000/svg" xmlns:xlink="http://www.w3.org/1999/xlink" xml:space="preserve" xmlns:serif="http://www.serif.com/" style="fill-rule:evenodd;clip-rule:evenodd;stroke-linejoin:round;stroke-miterlimit:2;">
    <g transform="matrix(0.0497327,0,0,0.0580215,-0.732065,-2.13693)">
        <path d="M256,71.3L14.72,416L497.3,416L256,71.3ZM256,102.7L277,132.7L256,162.7L235,132.7L256,102.7ZM224,148.4L245,178.4L224,208.4L203,178.4L224,148.4ZM288,148.4L309,178.4L288,208.4L267,178.4L288,148.4ZM201.3,180.8L192,194.2L213,224.2L192,254.1L171,224.1L201.3,180.8ZM320,194.1L341,224.1L320,254.1L299,224.1L320,194.1ZM256,194.2L277,224.1L256,254.1L235,224.1L256,194.2ZM167.4,229.2L160,239.9L181,269.9L160,299.8L139,269.8L167.4,229.2ZM352,239.8L373,269.8L352,299.8L331,269.8L352,239.8ZM224,239.9L245,269.9L224,299.8L203,269.9L224,239.9ZM288,239.9L309,269.9L288,299.8L267,269.9L288,239.9ZM133.7,277.5L128,285.6L149,315.6L128,345.5L107,315.5L133.7,277.5ZM379.6,279.3L405,315.5L384,345.5L363,315.6L384,285.6L379.6,279.3ZM192,285.6L213,315.6L192,345.5L171,315.6L192,285.6ZM256,285.6L277,315.6L256,345.5L235,315.6L256,285.6ZM320,285.6L341,315.6L320,345.5L299,315.6L320,285.6ZM98.51,327.7L95.99,331.3L117,361.3L91.29,398L49.29,398L98.51,327.7ZM413.7,328.1L462.7,398L420.7,398L395,361.3L416,331.3L413.7,328.1ZM160,331.3L181,361.3L160,391.2L139,361.3L160,331.3ZM224,331.3L245,361.3L224,391.2L203,361.3L224,331.3ZM288,331.3L309,361.3L288,391.2L267,361.3L288,331.3ZM352,331.3L373,361.3L352,391.2L331,361.3L352,331.3ZM128,377.1L142.6,398L113.4,398L128,377.1ZM192,377.1L206.6,398L177.4,398L192,377.1ZM256,377.1L270.6,398L241.4,398L256,377.1ZM320,377.1L334.6,398L305.4,398L320,377.1ZM384,377.1L398.6,398L369.4,398L384,377.1Z" style="fill:rgb(226,232,240);fill-rule:nonzero;"/>
    </g>
</svg>
