<?xml version="1.0" encoding="UTF-8" standalone="no"?>
<!DOCTYPE svg PUBLIC "-//W3C//DTD SVG 1.1//EN" "http://www.w3.org/Graphics/SVG/1.1/DTD/svg11.dtd">
<svg width="100%" height="100%" viewBox="0 0 24 24" version="1.1" xmlns="http://www.w3.org/2000/svg" xmlns:xlink="http://www.w3.org/1999/xlink" xml:space="preserve" xmlns:serif="http://www.serif.com/" style="fill-rule:evenodd;clip-rule:evenodd;stroke-linejoin:round;stroke-miterlimit:2;">
    <g transform="matrix(0.0694619,0,0,0.0694619,-1.76618,-1.99379)">
        <g id="svgg">
            <path id="path0" d="M178.889,35.349C171.153,40.247 39.128,170.639 31.673,180.745C19.432,197.336 24.893,214.84 50.619,241.472C77.063,268.846 90.079,274.22 109.516,265.786C121.954,260.389 261.542,119.477 264.304,109.529C269.372,91.279 265.217,82.136 240.465,57.063C213.612,29.863 196.874,23.961 178.889,35.349M212.912,75.613C228.255,84.967 230.186,104.675 217.011,117.444C194.37,139.389 161.045,115.676 172.979,86.112C178.473,72.499 198.967,67.111 212.912,75.613M285.556,136.526C281.889,138.186 246.212,172.093 206.274,211.875C112.692,305.09 113.51,302.96 155.116,345.159C197.636,388.285 197.389,388.376 291.105,295.458C386.238,201.134 385.568,202.812 344.937,160.75C318.541,133.426 304.79,127.816 285.556,136.526M114.924,183.082C138.818,209.155 100.123,245.593 75.107,220.577C56.718,202.188 71.767,171.185 97.701,174.029C105.499,174.884 109.189,176.824 114.924,183.082M259.586,213.945C260.879,215.504 262.252,221.754 262.636,227.834L263.333,238.889L275.003,239.561C300.942,241.054 297.402,266.667 271.257,266.667L262.222,266.667L262.222,277.652C262.222,288.758 257.356,295.556 249.405,295.556C242.969,295.556 235.556,284.904 235.556,275.657L235.556,266.667L226.566,266.667C217.318,266.667 206.667,259.253 206.667,252.818C206.667,244.867 213.464,240 224.57,240L235.556,240L235.556,230.494C235.556,214.348 251.059,203.671 259.586,213.945" style="fill:rgb(226,232,240);"/>
        </g>
    </g>
</svg>
