<?xml version="1.0" encoding="UTF-8" standalone="no"?>
<!DOCTYPE svg PUBLIC "-//W3C//DTD SVG 1.1//EN" "http://www.w3.org/Graphics/SVG/1.1/DTD/svg11.dtd">
<svg width="100%" height="100%" viewBox="0 0 24 24" version="1.1" xmlns="http://www.w3.org/2000/svg" xmlns:xlink="http://www.w3.org/1999/xlink" xml:space="preserve" xmlns:serif="http://www.serif.com/" style="fill-rule:evenodd;clip-rule:evenodd;stroke-linejoin:round;stroke-miterlimit:2;">
    <g transform="matrix(0.0538117,0,0,0.0538117,-1.77578,-2.20628)">
        <path d="M105,41L105,439L407,439L407,41L105,41ZM160,215C178.1,215 193,229.9 193,248C193,266.1 178.1,281 160,281C141.9,281 127,266.1 127,248C127,229.9 141.9,215 160,215ZM160,233C151.6,233 145,239.6 145,248C145,256.4 151.6,263 160,263C168.4,263 175,256.4 175,248C175,239.6 168.4,233 160,233ZM73,457L73,487L439,487L439,457L73,457Z" style="fill:rgb(226,232,240);fill-rule:nonzero;"/>
    </g>
</svg>
