<?xml version="1.0" encoding="UTF-8" standalone="no"?>
<!DOCTYPE svg PUBLIC "-//W3C//DTD SVG 1.1//EN" "http://www.w3.org/Graphics/SVG/1.1/DTD/svg11.dtd">
<svg width="100%" height="100%" viewBox="0 0 24 24" version="1.1" xmlns="http://www.w3.org/2000/svg" xmlns:xlink="http://www.w3.org/1999/xlink" xml:space="preserve" xmlns:serif="http://www.serif.com/" style="fill-rule:evenodd;clip-rule:evenodd;stroke-linejoin:round;stroke-miterlimit:2;">
    <path d="M23.953,4.57C23.054,4.966 22.103,5.227 21.128,5.345C22.154,4.728 22.923,3.761 23.291,2.622C22.34,3.177 21.286,3.581 20.164,3.806C19.234,2.812 17.932,2.247 16.57,2.247C13.871,2.247 11.65,4.467 11.65,7.167C11.65,7.544 11.694,7.92 11.78,8.288C7.69,8.095 4.067,6.13 1.64,3.162C1.199,3.912 0.969,4.767 0.974,5.637C0.974,7.347 1.844,8.85 3.162,9.733C2.381,9.708 1.617,9.497 0.934,9.117L0.934,9.177C0.933,11.511 2.592,13.541 4.88,14.004C4.158,14.197 3.402,14.226 2.668,14.089C3.314,16.089 5.171,17.467 7.272,17.506C5.532,18.872 3.382,19.613 1.17,19.611C0.78,19.611 0.391,19.588 0,19.544C2.255,20.988 4.879,21.755 7.557,21.753C16.61,21.753 21.555,14.257 21.555,7.768C21.555,7.558 21.555,7.348 21.54,7.138C22.506,6.443 23.339,5.58 24,4.59L23.953,4.57Z" style="fill:rgb(226,232,240);fill-rule:nonzero;"/>
</svg>
