<?xml version="1.0" encoding="UTF-8" standalone="no"?>
<!DOCTYPE svg PUBLIC "-//W3C//DTD SVG 1.1//EN" "http://www.w3.org/Graphics/SVG/1.1/DTD/svg11.dtd">
<svg width="100%" height="100%" viewBox="0 0 24 24" version="1.1" xmlns="http://www.w3.org/2000/svg" xmlns:xlink="http://www.w3.org/1999/xlink" xml:space="preserve" xmlns:serif="http://www.serif.com/" style="fill-rule:evenodd;clip-rule:evenodd;stroke-linejoin:round;stroke-miterlimit:2;">
    <path d="M8.691,2.188C3.891,2.188 0,5.476 0,9.53C0,11.742 1.17,13.733 3.002,15.08C3.21,15.231 3.297,15.501 3.215,15.745L2.825,17.225C2.806,17.295 2.777,17.366 2.777,17.438C2.777,17.601 2.907,17.733 3.067,17.733C3.127,17.731 3.184,17.712 3.234,17.679L5.137,16.565C5.35,16.429 5.612,16.393 5.854,16.467C6.776,16.735 7.731,16.87 8.691,16.87C8.967,16.87 9.234,16.843 9.502,16.82C8.645,14.242 9.659,11.848 11.434,10.374C13.137,8.959 15.316,8.394 17.287,8.536C16.711,4.953 13.091,2.188 8.691,2.188ZM5.785,5.991C6.427,5.991 6.947,6.52 6.947,7.171C6.947,7.174 6.947,7.176 6.947,7.179C6.947,7.818 6.424,8.345 5.785,8.349C5.146,8.345 4.623,7.818 4.623,7.179C4.623,7.176 4.623,7.173 4.623,7.17C4.623,6.519 5.143,5.99 5.785,5.99L5.785,5.991ZM11.598,5.991C12.24,5.991 12.76,6.52 12.76,7.171C12.76,7.174 12.76,7.176 12.76,7.179C12.76,7.818 12.237,8.345 11.598,8.349C10.959,8.345 10.436,7.818 10.436,7.179C10.436,7.176 10.436,7.174 10.436,7.171C10.436,6.52 10.956,5.991 11.598,5.991ZM16.938,8.858C15.141,8.806 13.192,9.37 11.658,10.644C9.938,12.072 8.971,14.364 9.878,16.864C10.82,19.317 13.544,21.093 16.762,21.093C17.588,21.093 18.384,20.973 19.123,20.757C19.325,20.696 19.543,20.726 19.721,20.839L21.305,21.765C21.346,21.793 21.395,21.81 21.445,21.812C21.579,21.812 21.685,21.701 21.685,21.565C21.685,21.505 21.662,21.445 21.647,21.388L21.32,20.155C21.305,20.104 21.298,20.052 21.297,19.999C21.296,19.842 21.371,19.694 21.498,19.601C23.024,18.48 24,16.82 24,14.98C24,11.77 21.069,9.143 17.344,8.892L17.344,8.89C17.209,8.88 17.074,8.863 16.937,8.86L16.938,8.858ZM14.408,12.132C14.943,12.132 15.377,12.572 15.377,13.114C15.377,13.116 15.377,13.119 15.377,13.121C15.377,13.654 14.941,14.093 14.408,14.097C13.875,14.093 13.439,13.654 13.439,13.121C13.439,13.119 13.439,13.116 13.439,13.114C13.439,12.572 13.873,12.132 14.409,12.132L14.408,12.132ZM19.252,12.132C19.787,12.132 20.221,12.572 20.221,13.114C20.221,13.116 20.221,13.119 20.221,13.121C20.221,13.654 19.785,14.093 19.252,14.097C18.719,14.093 18.283,13.654 18.283,13.121C18.283,13.119 18.283,13.116 18.283,13.114C18.283,12.572 18.717,12.132 19.252,12.132Z" style="fill:rgb(226,232,240);fill-rule:nonzero;"/>
</svg>
