<?xml version="1.0" encoding="UTF-8" standalone="no"?>
<!DOCTYPE svg PUBLIC "-//W3C//DTD SVG 1.1//EN" "http://www.w3.org/Graphics/SVG/1.1/DTD/svg11.dtd">
<svg width="100%" height="100%" viewBox="0 0 24 24" version="1.1" xmlns="http://www.w3.org/2000/svg" xmlns:xlink="http://www.w3.org/1999/xlink" xml:space="preserve" xmlns:serif="http://www.serif.com/" style="fill-rule:evenodd;clip-rule:evenodd;stroke-linejoin:round;stroke-miterlimit:2;">
    <path d="M10.098,20.323C6.121,20.714 2.684,18.917 2.426,16.303C2.167,13.694 5.185,11.256 9.166,10.862C13.145,10.468 16.579,12.266 16.837,14.88C17.096,17.48 14.078,19.929 10.1,20.319L10.098,20.323ZM9.05,17.219C8.666,17.835 7.842,18.103 7.221,17.821C6.609,17.542 6.428,16.83 6.815,16.228C7.194,15.633 7.991,15.367 8.608,15.627C9.23,15.89 9.428,16.599 9.05,17.219ZM10.32,15.592C10.179,15.829 9.871,15.945 9.631,15.845C9.395,15.755 9.318,15.484 9.454,15.259C9.592,15.032 9.89,14.913 10.126,15.019C10.365,15.109 10.441,15.379 10.306,15.62L10.32,15.592ZM10.496,12.873C8.603,12.38 6.463,13.323 5.639,14.991C4.803,16.695 5.613,18.582 7.525,19.201C9.508,19.841 11.843,18.86 12.657,17.022C13.457,15.229 12.456,13.38 10.496,12.873ZM18.059,11.649C17.713,11.544 17.489,11.469 17.654,11.034C18.029,10.057 18.074,9.23 17.654,8.63C16.873,7.518 14.739,7.577 12.29,8.6C12.29,8.6 11.524,8.931 11.719,8.329C12.095,7.112 12.034,6.105 11.449,5.52C10.111,4.183 6.58,5.565 3.561,8.6C1.309,10.87 0,13.273 0,15.348C0,19.329 5.099,21.743 10.086,21.743C16.622,21.743 20.974,17.942 20.974,14.923C20.974,13.101 19.427,12.069 18.059,11.639L18.059,11.649ZM19.967,6.557C19.201,5.701 18.059,5.37 17.007,5.595C16.571,5.685 16.301,6.106 16.391,6.527C16.481,6.947 16.902,7.218 17.323,7.129C17.834,7.024 18.39,7.173 18.765,7.594C19.141,8.015 19.231,8.571 19.081,9.067C18.945,9.473 19.17,9.923 19.591,10.059C19.996,10.178 20.448,9.954 20.583,9.547C20.913,8.526 20.703,7.369 19.937,6.512L19.967,6.557ZM22.385,4.362C20.809,2.605 18.48,1.943 16.331,2.394C15.835,2.498 15.519,2.981 15.625,3.475C15.729,3.971 16.211,4.288 16.707,4.182C18.239,3.851 19.892,4.332 21.003,5.565C22.115,6.811 22.432,8.508 21.95,9.981C21.785,10.461 22.056,10.988 22.536,11.138C23.015,11.303 23.527,11.034 23.693,10.552C24.368,8.464 23.934,6.074 22.355,4.317L22.385,4.362Z" style="fill:rgb(226,232,240);fill-rule:nonzero;"/>
</svg>
