<?xml version="1.0" encoding="UTF-8" standalone="no"?>
<!DOCTYPE svg PUBLIC "-//W3C//DTD SVG 1.1//EN" "http://www.w3.org/Graphics/SVG/1.1/DTD/svg11.dtd">
<svg width="100%" height="100%" viewBox="0 0 24 24" version="1.1" xmlns="http://www.w3.org/2000/svg" xmlns:xlink="http://www.w3.org/1999/xlink" xml:space="preserve" xmlns:serif="http://www.serif.com/" style="fill-rule:evenodd;clip-rule:evenodd;stroke-linejoin:round;stroke-miterlimit:2;">
    <path d="M23.498,6.186C23.222,5.148 22.412,4.332 21.376,4.05C19.505,3.545 12,3.545 12,3.545C12,3.545 4.495,3.545 2.623,4.05C1.587,4.333 0.778,5.148 0.502,6.186C0,8.07 0,12 0,12C0,12 0,15.93 0.502,17.814C0.778,18.852 1.588,19.668 2.624,19.95C4.495,20.455 12,20.455 12,20.455C12,20.455 19.505,20.455 21.377,19.95C22.413,19.668 23.224,18.852 23.499,17.814C24,15.93 24,12 24,12C24,12 24,8.07 23.498,6.186ZM9.545,15.568L9.545,8.432L15.818,12L9.545,15.568Z" style="fill:rgb(226,232,240);fill-rule:nonzero;"/>
</svg>
