<?xml version="1.0" encoding="UTF-8" standalone="no"?>
<!DOCTYPE svg PUBLIC "-//W3C//DTD SVG 1.1//EN" "http://www.w3.org/Graphics/SVG/1.1/DTD/svg11.dtd">
<svg width="100%" height="100%" viewBox="0 0 24 24" version="1.1" xmlns="http://www.w3.org/2000/svg" xmlns:xlink="http://www.w3.org/1999/xlink" xml:space="preserve" xmlns:serif="http://www.serif.com/" style="fill-rule:evenodd;clip-rule:evenodd;stroke-linejoin:round;stroke-miterlimit:2;">
    <path d="M3.537,0C2.165,0 1.66,0.506 1.66,1.879L1.66,18.44C1.659,18.585 1.666,18.729 1.68,18.873C1.711,19.173 1.717,19.463 1.996,19.793C2.023,19.826 2.307,20.038 2.307,20.038C2.46,20.113 2.565,20.168 2.737,20.238L11.072,23.729C11.505,23.928 11.686,24.005 12,23.999L12.002,23.999C12.316,24.005 12.497,23.928 12.93,23.729L21.265,20.237C21.437,20.167 21.542,20.113 21.695,20.037C21.695,20.037 21.979,19.826 22.006,19.794C22.286,19.464 22.291,19.173 22.322,18.874C22.336,18.73 22.343,18.585 22.342,18.44L22.342,1.879C22.342,0.506 21.836,-0.001 20.464,-0.001L3.537,0ZM16.903,3.11L17.583,3.11C18.721,3.11 19.271,3.663 19.271,4.806L19.271,6.686L17.897,6.686L17.897,4.886C17.897,4.517 17.727,4.346 17.374,4.346L17.139,4.346C16.772,4.346 16.602,4.516 16.602,4.885L16.602,10.695C16.602,11.064 16.772,11.235 17.139,11.235L17.401,11.235C17.754,11.235 17.924,11.064 17.924,10.695L17.924,8.619L19.297,8.619L19.297,10.762C19.297,11.906 18.735,12.472 17.597,12.472L16.903,12.472C15.765,12.472 15.203,11.906 15.203,10.762L15.203,4.82C15.203,3.676 15.765,3.111 16.903,3.111L16.903,3.11ZM4.717,3.19L7.831,3.19L7.831,4.464L6.117,4.464L6.117,7.067L7.765,7.067L7.765,8.342L6.117,8.342L6.117,11.116L7.857,11.116L7.857,12.391L4.717,12.391L4.717,3.19ZM8.533,3.19L10.731,3.19C11.869,3.19 12.431,3.754 12.431,4.898L12.431,7.343C12.431,8.487 11.869,9.053 10.731,9.053L9.932,9.053L9.932,12.391L8.532,12.391L8.533,3.19ZM13.063,3.19L14.463,3.19L14.463,12.391L13.063,12.391L13.063,3.19ZM9.933,4.425L9.933,7.817L10.508,7.817C10.862,7.817 11.031,7.646 11.031,7.277L11.031,4.965C11.031,4.597 10.861,4.425 10.508,4.425L9.933,4.425ZM6.193,14.572C6.395,14.573 6.595,14.609 6.784,14.68C6.963,14.752 7.128,14.853 7.274,14.979L6.822,15.525C6.729,15.445 6.626,15.38 6.514,15.33C6.399,15.283 6.275,15.26 6.151,15.262C6.054,15.261 5.959,15.282 5.871,15.322C5.786,15.361 5.71,15.416 5.647,15.485C5.582,15.556 5.531,15.638 5.496,15.728C5.458,15.823 5.439,15.925 5.44,16.027L5.44,16.035C5.439,16.141 5.458,16.246 5.496,16.345C5.531,16.437 5.584,16.52 5.653,16.59C5.721,16.658 5.802,16.713 5.891,16.75C5.987,16.789 6.09,16.809 6.194,16.808C6.351,16.814 6.505,16.774 6.639,16.692L6.639,16.353L6.091,16.353L6.091,15.788L7.37,15.788L7.37,17.043C7.212,17.171 7.035,17.275 6.846,17.35C6.629,17.435 6.397,17.477 6.163,17.473C5.957,17.475 5.753,17.439 5.561,17.366C5.384,17.298 5.221,17.196 5.083,17.066C4.947,16.938 4.839,16.783 4.765,16.611C4.687,16.428 4.648,16.23 4.65,16.031L4.65,16.023C4.648,15.827 4.687,15.633 4.763,15.453C4.836,15.281 4.942,15.125 5.075,14.993C5.211,14.859 5.372,14.754 5.549,14.684C5.739,14.609 5.942,14.571 6.147,14.573C6.162,14.573 6.177,14.573 6.192,14.573L6.193,14.572ZM18.156,14.58C18.364,14.579 18.57,14.611 18.768,14.674C18.952,14.735 19.124,14.829 19.275,14.951L18.889,15.497C18.769,15.411 18.638,15.342 18.499,15.292C18.375,15.247 18.243,15.223 18.111,15.222C18.038,15.217 17.965,15.235 17.903,15.274C17.86,15.302 17.834,15.35 17.833,15.401L17.833,15.409C17.832,15.439 17.84,15.468 17.855,15.493C17.874,15.521 17.9,15.544 17.931,15.559C17.978,15.584 18.027,15.604 18.078,15.619C18.14,15.639 18.218,15.659 18.314,15.68C18.46,15.711 18.604,15.752 18.744,15.802C18.861,15.843 18.971,15.9 19.072,15.972C19.159,16.035 19.23,16.117 19.279,16.212C19.329,16.317 19.353,16.433 19.35,16.549L19.35,16.557C19.352,16.689 19.325,16.82 19.269,16.939C19.215,17.05 19.137,17.147 19.04,17.224C18.935,17.306 18.815,17.367 18.687,17.404C18.537,17.446 18.382,17.467 18.227,17.465C17.986,17.466 17.746,17.427 17.517,17.349C17.298,17.275 17.096,17.157 16.924,17.003L17.354,16.489C17.631,16.712 17.932,16.824 18.254,16.824C18.336,16.829 18.417,16.812 18.49,16.774C18.542,16.746 18.574,16.691 18.572,16.632L18.572,16.624C18.572,16.597 18.565,16.57 18.552,16.547C18.533,16.519 18.508,16.497 18.479,16.481C18.434,16.455 18.386,16.435 18.336,16.419C18.259,16.395 18.182,16.374 18.103,16.357C17.964,16.325 17.826,16.288 17.69,16.244C17.572,16.207 17.461,16.153 17.359,16.084C17.267,16.021 17.191,15.938 17.137,15.841C17.079,15.73 17.051,15.606 17.055,15.481L17.055,15.473C17.054,15.349 17.079,15.227 17.129,15.114C17.178,15.005 17.251,14.908 17.343,14.831C17.443,14.748 17.559,14.685 17.683,14.646C17.828,14.6 17.979,14.578 18.131,14.58C18.139,14.58 18.148,14.58 18.156,14.58ZM8.798,14.605L9.54,14.605L10.723,17.415L9.898,17.415L9.695,16.916L8.623,16.916L8.425,17.414L7.615,17.414L8.798,14.605ZM10.995,14.625L11.809,14.625L12.472,15.705L13.135,14.625L13.949,14.625L13.949,17.415L13.183,17.415L13.183,15.813L12.472,16.904L12.456,16.904L11.749,15.821L11.749,17.414L10.995,17.414L10.995,14.625ZM14.464,14.625L16.699,14.625L16.699,15.283L15.226,15.283L15.226,15.705L16.56,15.705L16.56,16.315L15.226,16.315L15.226,16.757L16.719,16.757L16.719,17.415L14.464,17.415L14.464,14.625ZM9.164,15.522L8.849,16.315L9.473,16.315L9.164,15.522ZM8.019,20.712L16.033,20.712L11.943,22.06L8.019,20.712Z" style="fill:rgb(226,232,240);fill-rule:nonzero;"/>
</svg>
