<?xml version="1.0" encoding="UTF-8" standalone="no"?>
<!DOCTYPE svg PUBLIC "-//W3C//DTD SVG 1.1//EN" "http://www.w3.org/Graphics/SVG/1.1/DTD/svg11.dtd">
<svg width="100%" height="100%" viewBox="0 0 24 24" version="1.1" xmlns="http://www.w3.org/2000/svg" xmlns:xlink="http://www.w3.org/1999/xlink" xml:space="preserve" xmlns:serif="http://www.serif.com/" style="fill-rule:evenodd;clip-rule:evenodd;stroke-linejoin:round;stroke-miterlimit:2;">
    <path d="M7.15,15.24L4.36,15.24C4.141,15.24 3.96,15.421 3.96,15.64L3.96,17.64C3.96,17.85 4.14,18.04 4.36,18.04L7.16,18.04L7.16,19.36L3.66,19.36C3.1,19.36 2.64,18.9 2.64,18.33L2.64,14.94C2.64,14.38 3.1,13.92 3.67,13.92L7.15,13.92L7.15,15.24ZM8.16,11.54C8.16,12.12 7.69,12.59 7.11,12.59L2.63,12.59L2.63,11.24L6.41,11.24C6.629,11.24 6.81,11.059 6.81,10.84L6.81,6.39C6.81,6.171 6.629,5.99 6.41,5.99L4.39,5.99C4.387,5.99 4.383,5.99 4.38,5.99C4.161,5.99 3.98,6.17 3.98,6.39L3.98,8.41C3.98,8.64 4.16,8.81 4.38,8.81L6,8.81L6,10.16L3.68,10.16C3.1,10.16 2.63,9.7 2.63,9.12L2.63,5.68C2.63,5.11 3.1,4.64 3.68,4.64L7.1,4.64C7.68,4.64 8.15,5.11 8.15,5.68L8.15,11.54L8.16,11.54ZM21.36,19.36L20.04,19.36L20.04,15.24L19.11,15.24C18.891,15.24 18.71,15.421 18.71,15.64L18.71,19.36L17.38,19.36L17.38,15.24L16.45,15.24C16.231,15.24 16.05,15.421 16.05,15.64L16.05,19.36L14.72,19.36L14.72,14.94C14.72,14.38 15.18,13.92 15.75,13.92L21.36,13.92L21.36,19.36ZM21.37,11.54C21.37,12.12 20.9,12.59 20.32,12.59L15.84,12.59L15.84,11.24L19.62,11.24C19.839,11.24 20.02,11.059 20.02,10.84L20.02,6.39C20.02,6.171 19.839,5.99 19.62,5.99L17.59,5.99C17.371,5.99 17.19,6.171 17.19,6.39L17.19,8.41C17.19,8.64 17.37,8.81 17.59,8.81L19.21,8.81L19.21,10.16L16.9,10.16C16.32,10.16 15.85,9.7 15.85,9.12L15.85,5.68C15.85,5.11 16.32,4.64 16.9,4.64L20.33,4.64C20.91,4.64 21.38,5.11 21.38,5.68L21.38,11.54L21.37,11.54ZM13.72,4.64L10.28,4.64C9.7,4.64 9.24,5.11 9.24,5.68L9.24,9.12C9.24,9.7 9.7,10.16 10.28,10.16L13.72,10.16C14.29,10.16 14.76,9.7 14.76,9.12L14.76,5.68C14.76,5.11 14.29,4.64 13.72,4.64M13.42,6.39L13.42,8.41C13.42,8.629 13.239,8.81 13.02,8.81L10.99,8.81C10.771,8.81 10.59,8.629 10.59,8.41L10.59,6.4C10.59,6.18 10.76,6 10.99,6L13,6C13.23,6 13.4,6.18 13.4,6.4L13.42,6.39ZM12.63,13.92L9.24,13.92C8.67,13.92 8.21,14.38 8.21,14.94L8.21,18.33C8.21,18.9 8.67,19.36 9.24,19.36L12.63,19.36C13.2,19.36 13.66,18.9 13.66,18.33L13.66,14.94C13.66,14.38 13.2,13.92 12.63,13.92M12.33,15.64L12.33,17.64C12.33,17.859 12.149,18.04 11.93,18.04L11.93,18.03L9.94,18.03C9.721,18.03 9.54,17.849 9.54,17.63L9.54,15.64C9.54,15.42 9.72,15.24 9.94,15.24L11.94,15.24C12.16,15.24 12.34,15.42 12.34,15.64L12.33,15.64ZM23.49,1.1C23.163,0.768 22.716,0.58 22.25,0.58L1.75,0.58C1.747,0.58 1.743,0.58 1.74,0.58C0.785,0.58 -0,1.365 -0,2.32C-0,2.323 -0,2.327 0,2.33L0,21.67C-0,21.673 -0,21.677 -0,21.68C-0,22.635 0.785,23.42 1.74,23.42C1.743,23.42 1.747,23.42 1.75,23.42L22.25,23.42C22.253,23.42 22.257,23.42 22.26,23.42C23.215,23.42 24,22.635 24,21.68C24,21.677 24,21.673 24,21.67L24,2.33C24,1.85 23.8,1.41 23.49,1.09M23.49,21.67C23.49,21.673 23.49,21.677 23.49,21.68C23.49,22.355 22.935,22.91 22.26,22.91C22.257,22.91 22.253,22.91 22.25,22.91L1.75,22.91C1.743,22.91 1.737,22.91 1.73,22.91C1.055,22.91 0.5,22.355 0.5,21.68C0.5,21.677 0.5,21.673 0.5,21.67L0.5,2.33C0.5,2.327 0.5,2.323 0.5,2.32C0.5,1.645 1.055,1.09 1.73,1.09C1.733,1.09 1.737,1.09 1.74,1.09L22.24,1.09C22.92,1.09 23.48,1.65 23.48,2.33L23.48,21.67L23.49,21.67Z" style="fill:rgb(226,232,240);fill-rule:nonzero;"/>
</svg>
