<?xml version="1.0" encoding="UTF-8" standalone="no"?>
<!DOCTYPE svg PUBLIC "-//W3C//DTD SVG 1.1//EN" "http://www.w3.org/Graphics/SVG/1.1/DTD/svg11.dtd">
<svg width="100%" height="100%" viewBox="0 0 24 24" version="1.1" xmlns="http://www.w3.org/2000/svg" xmlns:xlink="http://www.w3.org/1999/xlink" xml:space="preserve" xmlns:serif="http://www.serif.com/" style="fill-rule:evenodd;clip-rule:evenodd;stroke-linejoin:round;stroke-miterlimit:2;">
    <path d="M3.13,1.338C2.08,1.96 0.02,4.328 0,4.95L0,5.98C0,7.283 1.22,8.43 2.325,8.43C3.655,8.43 4.761,7.328 4.761,6.02C4.761,7.328 5.831,8.43 7.161,8.43C8.489,8.43 9.523,7.328 9.523,6.02C9.523,7.328 10.66,8.43 11.989,8.43L12.013,8.43C13.343,8.43 14.479,7.328 14.479,6.02C14.479,7.328 15.513,8.43 16.842,8.43C18.172,8.43 19.242,7.328 19.242,6.02C19.242,7.328 20.348,8.43 21.677,8.43C22.78,8.43 24,7.282 24,5.98L24,4.95C23.98,4.33 21.918,1.96 20.87,1.338C17.617,1.224 15.362,1.204 12,1.205C8.638,1.205 4.055,1.258 3.13,1.338ZM9.506,7.815C9.379,8.036 9.221,8.239 9.038,8.417C8.538,8.907 7.848,9.212 7.091,9.212C6.362,9.212 5.662,8.927 5.141,8.417C4.959,8.239 4.821,8.047 4.695,7.827C4.568,8.049 4.392,8.239 4.209,8.417C3.688,8.927 2.988,9.212 2.259,9.212C2.167,9.212 2.072,9.187 1.995,9.16C1.888,10.273 1.843,11.336 1.827,12.11L1.827,12.115L1.821,13.282C1.841,15.616 1.591,20.846 2.851,22.132C4.803,22.586 8.396,22.794 12.001,22.795C15.606,22.795 19.199,22.585 21.151,22.131C22.411,20.847 22.161,15.617 22.181,13.283L22.175,12.116L22.175,12.112C22.159,11.337 22.115,10.274 22.007,9.162C21.93,9.188 21.835,9.214 21.744,9.214C21.015,9.214 20.315,8.929 19.794,8.419C19.61,8.241 19.434,8.051 19.308,7.829C19.181,8.049 19.043,8.241 18.861,8.419C18.34,8.928 17.64,9.214 16.911,9.213C16.151,9.213 15.465,8.91 14.963,8.42C14.78,8.242 14.622,8.039 14.495,7.818C14.369,8.039 14.214,8.242 14.032,8.42C13.511,8.929 12.811,9.214 12.082,9.214L11.922,9.214C11.194,9.215 10.493,8.93 9.972,8.421C9.79,8.243 9.634,8.04 9.508,7.819L9.506,7.815ZM7.502,10.405L7.502,10.407C8.297,10.409 9.002,10.407 9.875,11.36C10.562,11.288 11.281,11.252 12,11.253C12.72,11.253 13.438,11.288 14.125,11.36C14.998,10.407 15.703,10.41 16.497,10.407C16.873,10.407 18.373,10.407 19.417,13.341L20.54,17.369C21.372,20.364 20.274,20.437 18.904,20.439C16.874,20.364 15.748,18.889 15.748,17.414C14.624,17.598 13.312,17.69 12,17.691C10.688,17.691 9.376,17.598 8.252,17.414C8.252,18.889 7.127,20.364 5.096,20.44C3.726,20.436 2.628,20.363 3.46,17.368L4.582,13.341C5.627,10.407 7.127,10.407 7.502,10.407L7.502,10.405ZM12,12.714C11.998,12.716 9.86,14.678 9.477,15.376L10.877,15.32L10.877,16.54C10.877,16.596 11.437,16.573 12,16.547C12.562,16.573 13.124,16.597 13.124,16.539L13.124,15.319L14.524,15.374C14.138,14.677 12,12.713 12,12.713L12,12.714Z" style="fill:rgb(226,232,240);fill-rule:nonzero;"/>
</svg>
