<?xml version="1.0" encoding="UTF-8" standalone="no"?>
<!DOCTYPE svg PUBLIC "-//W3C//DTD SVG 1.1//EN" "http://www.w3.org/Graphics/SVG/1.1/DTD/svg11.dtd">
<svg width="100%" height="100%" viewBox="0 0 24 24" version="1.1" xmlns="http://www.w3.org/2000/svg" xmlns:xlink="http://www.w3.org/1999/xlink" xml:space="preserve" xmlns:serif="http://www.serif.com/" style="fill-rule:evenodd;clip-rule:evenodd;stroke-linejoin:round;stroke-miterlimit:2;">
    <path d="M5.721,0C2.251,0 0,2.25 0,5.719L0,18.28C0,21.751 2.252,24 5.721,24L18.281,24C21.751,24 24,21.75 24,18.281L24,5.72C24,2.249 21.75,0 18.281,0L5.721,0ZM7.685,4.078C7.414,4.808 7.185,5.512 7.005,6.188L11.592,6.188C12.137,6.182 12.037,7.356 12.037,7.359L9.384,7.359C9.388,8.626 9.351,9.892 9.272,11.156L11.984,11.156C12.372,11.179 12.377,12.407 12.377,12.422L9.183,12.422C9.129,13.136 8.992,13.842 8.775,14.524L9.532,13.92C9.984,14.376 11.044,15.632 11.438,16.097C11.911,16.778 11.501,18.178 11.501,18.178L8.707,14.796C8.054,17.314 6.862,18.403 6.862,18.403C6.339,18.871 5.282,19.223 4.222,18.919C6.44,17.189 7.662,15.002 7.889,12.422L4.491,12.422C4.491,12.407 4.688,11.179 5.297,11.156L8.007,11.156C8.031,10.836 8.093,7.902 8.093,7.359L6.598,7.359C6.462,7.765 6.44,7.806 6.33,8.112C5.736,9.207 4.727,9.234 4.423,9.267C5.329,7.446 5.839,5.667 6.014,5.203C6.439,4.079 7.685,4.078 7.685,4.078ZM13.078,6L19.455,6L19.455,17.33L16.882,17.33L14.698,18.703L14.297,17.33L13.078,17.33L13.078,6ZM14.391,7.219L14.391,16.079L15.014,16.079L15.277,17.016L16.732,16.078L18.188,16.078L18.188,7.218L14.391,7.219Z" style="fill:rgb(226,232,240);fill-rule:nonzero;"/>
</svg>
